<svg width="317" height="369" viewBox="0 0 317 369" fill="none" xmlns="http://www.w3.org/2000/svg">
<path fill-rule="evenodd" clip-rule="evenodd" d="M80 128H105L134 114L135 111L102 107L94 111L80 128Z" fill="#111111"/>
<path fill-rule="evenodd" clip-rule="evenodd" d="M152 0L147 3L144 10L146 41L115 52L78 75L66 89L61 109L50 127L0 185L1 194L19 226L29 233L40 235L67 234L93 209L117 199L130 200L123 231L96 276L83 311L84 344L91 361L99 369H105L135 352L158 345L231 338L268 329L286 319L302 303L310 290L317 268V235L312 219L302 202L279 182L240 168L243 152L242 134L232 105L234 103L253 126L257 138L253 159L256 164L272 167L278 164L275 137L266 116L244 92L221 78L212 62L218 61L242 73L268 98L282 123L288 142L289 160L286 172L312 199L314 179L311 158L303 129L291 103L278 85L254 63L223 46L198 41L165 7L152 0ZM288 213L297 236L296 261L287 284L269 302L233 317L156 326L131 334L116 343L114 341L133 328L152 320L240 304L258 295L272 282L283 258L281 233L275 222L263 211L251 206L234 204V219L256 228L264 242L263 260L248 280L222 292L147 304L122 315L107 327L105 325L113 305L125 289L151 265L201 227L217 210L232 187L260 192L272 198L288 213ZM222 132V164L208 191L186 215L126 265L124 263L145 228L148 216L147 193L171 186L194 175L212 155L222 132ZM162 25L190 58L203 89L204 124L193 150L182 161L167 169L122 179L93 189L79 197L60 216L34 215L18 186L70 127L77 114L80 97L91 85L118 68L143 60H154L168 72L183 75L164 45L160 28L162 25Z" fill="#111111"/>
</svg>
