<svg xmlns="http://www.w3.org/2000/svg" width="400" height="250" viewBox="0 0 400 250">
  <defs>
    <linearGradient id="bg6" x1="0%" y1="0%" x2="100%" y2="100%">
      <stop offset="0%" style="stop-color:#1a0000"/>
      <stop offset="100%" style="stop-color:#2a0a1a"/>
    </linearGradient>
  </defs>
  <rect width="400" height="250" fill="url(#bg6)"/>
  <!-- Broken lock -->
  <rect x="175" y="120" width="50" height="40" rx="4" fill="none" stroke="#FF4444" stroke-width="2" opacity="0.7"/>
  <path d="M185 120 L185 100 Q185 80 200 80 Q215 80 215 100 L215 105" fill="none" stroke="#FF4444" stroke-width="2.5" opacity="0.6"/>
  <!-- Crack -->
  <path d="M215 105 L220 110 L212 115 L218 120" fill="none" stroke="#FF6600" stroke-width="2" opacity="0.8"/>
  <!-- Warning triangles -->
  <g transform="translate(100, 80)">
    <polygon points="15,0 30,26 0,26" fill="none" stroke="#FF4444" stroke-width="1.5" opacity="0.5"/>
    <text x="15" y="22" text-anchor="middle" fill="#FF4444" font-family="sans-serif" font-size="16" font-weight="bold" opacity="0.7">!</text>
  </g>
  <g transform="translate(270, 80)">
    <polygon points="15,0 30,26 0,26" fill="none" stroke="#FF4444" stroke-width="1.5" opacity="0.5"/>
    <text x="15" y="22" text-anchor="middle" fill="#FF4444" font-family="sans-serif" font-size="16" font-weight="bold" opacity="0.7">!</text>
  </g>
  <!-- Network breach lines -->
  <line x1="80" y1="160" x2="175" y2="140" stroke="#FF4444" stroke-width="0.8" stroke-dasharray="3,3" opacity="0.3"/>
  <line x1="320" y1="160" x2="225" y2="140" stroke="#FF4444" stroke-width="0.8" stroke-dasharray="3,3" opacity="0.3"/>
  <line x1="120" y1="190" x2="185" y2="155" stroke="#FF4444" stroke-width="0.8" stroke-dasharray="3,3" opacity="0.3"/>
  <line x1="280" y1="190" x2="215" y2="155" stroke="#FF4444" stroke-width="0.8" stroke-dasharray="3,3" opacity="0.3"/>
  <!-- Compromised nodes -->
  <circle cx="80" cy="160" r="5" fill="none" stroke="#FF4444" stroke-width="1" opacity="0.4"/>
  <circle cx="320" cy="160" r="5" fill="none" stroke="#FF4444" stroke-width="1" opacity="0.4"/>
  <circle cx="120" cy="190" r="5" fill="none" stroke="#FF6600" stroke-width="1" opacity="0.4"/>
  <circle cx="280" cy="190" r="5" fill="none" stroke="#FF6600" stroke-width="1" opacity="0.4"/>
  <!-- Keyhole -->
  <circle cx="200" cy="133" r="5" fill="#FF4444" opacity="0.3"/>
  <rect x="198" y="137" width="4" height="8" fill="#FF4444" opacity="0.3"/>
  <!-- Text -->
  <text x="200" y="245" text-anchor="middle" fill="#555" font-family="monospace" font-size="10">DEFI GOVERNANCE ATTACK</text>
</svg>
